<?xml version="1.0" encoding="UTF-8"?>
<svg width="199px" height="59px" viewBox="0 0 199 59" version="1.1" xmlns="http://www.w3.org/2000/svg" xmlns:xlink="http://www.w3.org/1999/xlink">
    <!-- Generator: Sketch 54 (76480) - https://sketchapp.com -->
    <title>Appstore</title>
    <desc>Created with Sketch.</desc>
    <g id="Page-1" stroke="none" stroke-width="1" fill="none" fill-rule="evenodd">
        <g id="Disappear-Dents---Homepage" transform="translate(-156.000000, -2498.000000)">
            <g id="Group-16" transform="translate(0.000000, 1816.000000)">
                <g id="Appstore" transform="translate(156.000000, 682.000000)">
                    <rect id="backfround-copy" fill="#000000" x="0" y="0" width="198.454545" height="58.9076509" rx="5"></rect>
                    <path d="M1.36676684,5.46591317 L1.36676684,53.4417377 C1.36676684,55.7057963 3.20200118,57.540884 5.46615237,57.540884 L192.988393,57.540884 C195.252917,57.540884 197.087779,55.7059211 197.087779,53.4417377 L197.087779,5.46591317 C197.087779,3.20185463 195.252544,1.36676684 192.988393,1.36676684 L5.46615237,1.36676684 C3.20162845,1.36676684 1.36676684,3.20172976 1.36676684,5.46591317 Z M0,5.46591317 C0,2.44717268 2.44649658,0 5.46615237,0 L192.988393,0 C196.007266,0 198.454545,2.44688707 198.454545,5.46591317 L198.454545,53.4417377 C198.454545,56.4604782 196.008049,58.9076509 192.988393,58.9076509 L5.46615237,58.9076509 C2.44727978,58.9076509 0,56.4607638 0,53.4417377 L0,5.46591317 Z" id="backfround-copy" fill="#A6A6A6" fill-rule="nonzero"></path>
                    <path d="M0.683383421,5.46591317 L0.683383421,53.4417377 C0.683383421,56.0832307 2.82459115,58.2242675 5.46615237,58.2242675 L192.988393,58.2242675 C195.630348,58.2242675 197.771162,56.0833349 197.771162,53.4417377 L197.771162,5.46591317 C197.771162,2.82442017 195.629954,0.683383421 192.988393,0.683383421 L5.46615237,0.683383421 C2.82419776,0.683383421 0.683383421,2.82431597 0.683383421,5.46591317 Z M0,5.46591317 C0,2.44717268 2.44649658,0 5.46615237,0 L192.988393,0 C196.007266,0 198.454545,2.44688707 198.454545,5.46591317 L198.454545,53.4417377 C198.454545,56.4604782 196.008049,58.9076509 192.988393,58.9076509 L5.46615237,58.9076509 C2.44727978,58.9076509 0,56.4607638 0,53.4417377 L0,5.46591317 Z" id="backfround-copy" fill="#8F8F8F" fill-rule="nonzero"></path>
                    <path d="M76.1741606,45.2399825 L79.5096589,45.2399825 L72.2080007,25.0167717 L68.8304582,25.0167717 L61.5288,45.2399825 L64.7521808,45.2399825 L66.6161358,39.8723527 L74.3242203,39.8723527 L76.1741606,45.2399825 Z M70.3580604,28.6886229 L70.5963103,28.6886229 L73.5253824,37.2375893 L67.4149736,37.2375893 L70.3580604,28.6886229 Z M88.3537883,29.7257106 C86.2796129,29.7257106 84.4857314,30.7627983 83.5607612,32.500621 L83.3365261,32.500621 L83.3365261,29.9779752 L80.4354834,29.9779752 L80.4354834,50.1871712 L83.4486437,50.1871712 L83.4486437,42.9275571 L83.6868935,42.9275571 C84.4857314,44.5392475 86.2095394,45.4922471 88.3818177,45.4922471 C92.23586,45.4922471 94.6884323,42.4510574 94.6884323,37.6019715 C94.6884323,32.7528856 92.23586,29.7257106 88.3537883,29.7257106 L88.3537883,29.7257106 Z M87.4988917,42.7874101 C84.9762458,42.7874101 83.3925849,40.7973229 83.3925849,37.6159862 C83.3925849,34.4206348 84.9762458,32.4305475 87.5129064,32.4305475 C90.0635816,32.4305475 91.5911838,34.3785907 91.5911838,37.6019715 C91.5911838,40.839367 90.0635816,42.7874101 87.4988917,42.7874101 L87.4988917,42.7874101 Z M103.981032,29.7257106 C101.906857,29.7257106 100.112975,30.7627983 99.188005,32.500621 L98.9637698,32.500621 L98.9637698,29.9779752 L96.0627271,29.9779752 L96.0627271,50.1871712 L99.0758874,50.1871712 L99.0758874,42.9275571 L99.3141373,42.9275571 C100.112975,44.5392475 101.836783,45.4922471 104.009061,45.4922471 C107.863104,45.4922471 110.315676,42.4510574 110.315676,37.6019715 C110.315676,32.7528856 107.863104,29.7257106 103.981032,29.7257106 L103.981032,29.7257106 Z M103.126135,42.7874101 C100.60349,42.7874101 99.0198286,40.7973229 99.0198286,37.6159862 C99.0198286,34.4206348 100.60349,32.4305475 103.14015,32.4305475 C105.690825,32.4305475 107.218428,34.3785907 107.218428,37.6019715 C107.218428,40.839367 105.690825,42.7874101 103.126135,42.7874101 L103.126135,42.7874101 Z M116.694073,39.8022792 C116.918308,43.4180716 119.931468,45.7304969 124.416172,45.7304969 C129.209199,45.7304969 132.208345,43.305954 132.208345,39.4378971 C132.208345,36.3967074 130.498551,34.7149435 126.3502,33.7479292 L124.121863,33.201356 C121.4871,32.5847092 120.421983,31.757842 120.421983,30.314328 C120.421983,28.4924171 122.075717,27.3011677 124.556319,27.3011677 C126.910788,27.3011677 128.536493,28.4643877 128.830802,30.3283427 L131.886006,30.3283427 C131.703815,26.9227708 128.70467,24.5262573 124.598363,24.5262573 C120.183733,24.5262573 117.240646,26.9227708 117.240646,30.5245485 C117.240646,33.4956647 118.908395,35.2615167 122.566232,36.1164134 L125.172966,36.7470748 C127.849773,37.3777363 129.027008,38.3027064 129.027008,39.8443233 C129.027008,41.6382048 127.177068,42.9415718 124.654422,42.9415718 C121.949585,42.9415718 120.071615,41.722293 119.805336,39.8022792 L116.694073,39.8022792 Z M134.801918,26.2780946 L134.801918,30.0480487 L132.293287,30.0480487 L132.293287,32.5847092 L134.801918,32.5847092 L134.801918,41.2037491 C134.801918,44.1468359 136.133315,45.3240707 139.482828,45.3240707 C140.071445,45.3240707 140.618018,45.2539972 141.094518,45.169909 L141.094518,42.6612778 C140.674077,42.7033219 140.435827,42.7313513 139.973342,42.7313513 C138.473769,42.7313513 137.815078,42.0306164 137.815078,40.4329407 L137.815078,32.5847092 L141.234665,32.5847092 L141.234665,30.0480487 L137.815078,30.0480487 L137.815078,26.2780946 L134.801918,26.2780946 Z M148.705354,42.8574836 C146.084605,42.8574836 144.613062,40.9374699 144.613062,37.6019715 C144.613062,34.2945025 146.084605,32.360474 148.705354,32.360474 C151.312088,32.360474 152.797646,34.2945025 152.797646,37.6019715 C152.797646,40.9234552 151.312088,42.8574836 148.705354,42.8574836 L148.705354,42.8574836 Z M148.705354,45.5342911 C153.162028,45.5342911 155.894895,42.5491602 155.894895,37.6019715 C155.894895,32.6828121 153.148013,29.6836665 148.705354,29.6836665 C144.24868,29.6836665 141.501799,32.6828121 141.501799,37.6019715 C141.501799,42.5491602 144.234665,45.5342911 148.705354,45.5342911 L148.705354,45.5342911 Z M157.269189,45.2399825 L160.28235,45.2399825 L160.28235,36.228531 C160.28235,34.084282 161.89404,32.640768 164.164421,32.640768 C164.66895,32.640768 165.593921,32.7388709 165.83217,32.8229591 L165.83217,29.8518429 C165.509832,29.7677547 164.93523,29.7257106 164.500774,29.7257106 C162.510687,29.7257106 160.828923,30.8188571 160.394467,32.3184299 L160.170232,32.3184299 L160.170232,29.9779752 L157.269189,29.9779752 L157.269189,45.2399825 Z M172.616139,32.2483564 C174.844476,32.2483564 176.302005,33.803988 176.372078,36.2005016 L168.663994,36.2005016 C168.83217,33.8180027 170.387802,32.2483564 172.616139,32.2483564 L172.616139,32.2483564 Z M176.358064,41.1196609 C175.797476,42.3109104 174.550168,42.9696012 172.728257,42.9696012 C170.317728,42.9696012 168.762097,41.2738226 168.663994,38.5970151 L168.663994,38.4288387 L179.441298,38.4288387 L179.441298,37.3777363 C179.441298,32.5847092 176.876608,29.6836665 172.630154,29.6836665 C168.327641,29.6836665 165.594775,32.780915 165.594775,37.6580303 C165.594775,42.5351456 168.271582,45.5342911 172.644168,45.5342911 C176.133829,45.5342911 178.572386,43.8525273 179.259106,41.1196609 L176.358064,41.1196609 Z" id="App-Store" fill="#FFFFFF"></path>
                    <path d="M64.3525617,9.23128206 L64.3525617,18.8613824 L67.8295418,18.8613824 C70.6992183,18.8613824 72.3609611,17.0928609 72.3609611,14.0163007 C72.3609611,10.9864563 70.6858709,9.23128206 67.8295418,9.23128206 L64.3525617,9.23128206 Z M65.8474629,10.59271 L67.6627001,10.59271 C69.6581263,10.59271 70.8393653,11.8607066 70.8393653,14.0363217 C70.8393653,16.2453053 69.6781473,17.4999545 67.6627001,17.4999545 L65.8474629,17.4999545 L65.8474629,10.59271 Z M77.6211449,17.7268592 C76.3731693,17.7268592 75.6724343,16.8125669 75.6724343,15.2242343 C75.6724343,13.6492491 76.3731693,12.7282832 77.6211449,12.7282832 C78.8624468,12.7282832 79.5698554,13.6492491 79.5698554,15.2242343 C79.5698554,16.8058932 78.8624468,17.7268592 77.6211449,17.7268592 L77.6211449,17.7268592 Z M77.6211449,19.0015294 C79.7433707,19.0015294 81.0447356,17.5800385 81.0447356,15.2242343 C81.0447356,12.8817775 79.7366971,11.4536129 77.6211449,11.4536129 C75.498919,11.4536129 74.1908804,12.8817775 74.1908804,15.2242343 C74.1908804,17.5800385 75.4922453,19.0015294 77.6211449,19.0015294 L77.6211449,19.0015294 Z M92.291198,11.5937599 L90.8563597,11.5937599 L89.5616685,17.1395765 L89.4482161,17.1395765 L87.9533149,11.5937599 L86.5785397,11.5937599 L85.0836384,17.1395765 L84.9768598,17.1395765 L83.6754949,11.5937599 L82.2206356,11.5937599 L84.2227355,18.8613824 L85.6976157,18.8613824 L87.192517,13.5091021 L87.3059693,13.5091021 L88.8075442,18.8613824 L90.2957718,18.8613824 L92.291198,11.5937599 Z M94.1144436,18.8613824 L95.5492818,18.8613824 L95.5492818,14.610257 C95.5492818,13.4757338 96.2566904,12.7683252 97.4112347,12.7683252 C98.4790213,12.7683252 98.9995672,13.3489341 98.9995672,14.5168257 L98.9995672,18.8613824 L100.434405,18.8613824 L100.434405,14.1564477 C100.434405,12.4279682 99.5201132,11.4536129 97.8984123,11.4536129 C96.803931,11.4536129 95.9563754,11.9407905 95.6026711,12.7483042 L95.4958925,12.7483042 L95.4958925,11.5937599 L94.1144436,11.5937599 L94.1144436,18.8613824 Z M102.858281,18.8613824 L104.293119,18.8613824 L104.293119,8.75745176 L102.858281,8.75745176 L102.858281,18.8613824 Z M109.853618,17.7268592 C108.605642,17.7268592 107.904907,16.8125669 107.904907,15.2242343 C107.904907,13.6492491 108.605642,12.7282832 109.853618,12.7282832 C111.09492,12.7282832 111.802329,13.6492491 111.802329,15.2242343 C111.802329,16.8058932 111.09492,17.7268592 109.853618,17.7268592 L109.853618,17.7268592 Z M109.853618,19.0015294 C111.975844,19.0015294 113.277209,17.5800385 113.277209,15.2242343 C113.277209,12.8817775 111.96917,11.4536129 109.853618,11.4536129 C107.731392,11.4536129 106.423354,12.8817775 106.423354,15.2242343 C106.423354,17.5800385 107.724718,19.0015294 109.853618,19.0015294 L109.853618,19.0015294 Z M117.716532,17.7735748 C116.935713,17.7735748 116.368451,17.3931759 116.368451,16.7391566 C116.368451,16.0984846 116.82226,15.7581276 117.82331,15.691391 L119.598505,15.5779386 L119.598505,16.1852423 C119.598505,17.0861872 118.797665,17.7735748 117.716532,17.7735748 L117.716532,17.7735748 Z M117.34948,18.9815084 C118.303814,18.9815084 119.09798,18.5677411 119.531769,17.8403115 L119.645221,17.8403115 L119.645221,18.8613824 L121.02667,18.8613824 L121.02667,13.8961748 C121.02667,12.3612315 119.998925,11.4536129 118.177014,11.4536129 C116.528619,11.4536129 115.354054,12.2544529 115.207233,13.5024284 L116.595356,13.5024284 C116.755524,12.9885561 117.309438,12.6949148 118.110278,12.6949148 C119.091307,12.6949148 119.598505,13.1287031 119.598505,13.8961748 L119.598505,14.5234994 L117.629774,14.6369517 C115.901294,14.7437304 114.926939,15.4978546 114.926939,16.8058932 C114.926939,18.1339528 115.94801,18.9815084 117.34948,18.9815084 L117.34948,18.9815084 Z M126.066623,18.9815084 C127.067673,18.9815084 127.915228,18.5076781 128.349017,17.7135118 L128.462469,17.7135118 L128.462469,18.8613824 L129.837244,18.8613824 L129.837244,8.75745176 L128.402406,8.75745176 L128.402406,12.7483042 L128.295627,12.7483042 C127.901881,11.9474642 127.060999,11.4736339 126.066623,11.4736339 C124.231364,11.4736339 123.050126,12.9284931 123.050126,15.2242343 C123.050126,17.5266492 124.218017,18.9815084 126.066623,18.9815084 L126.066623,18.9815084 Z M126.473716,12.7616515 C127.674976,12.7616515 128.429101,13.7159858 128.429101,15.230908 C128.429101,16.7525039 127.68165,17.6934908 126.473716,17.6934908 C125.259109,17.6934908 124.531679,16.7658512 124.531679,15.2242343 C124.531679,13.6959648 125.265783,12.7616515 126.473716,12.7616515 L126.473716,12.7616515 Z M139.476688,17.7268592 C138.228712,17.7268592 137.527977,16.8125669 137.527977,15.2242343 C137.527977,13.6492491 138.228712,12.7282832 139.476688,12.7282832 C140.71799,12.7282832 141.425398,13.6492491 141.425398,15.2242343 C141.425398,16.8058932 140.71799,17.7268592 139.476688,17.7268592 L139.476688,17.7268592 Z M139.476688,19.0015294 C141.598913,19.0015294 142.900278,17.5800385 142.900278,15.2242343 C142.900278,12.8817775 141.59224,11.4536129 139.476688,11.4536129 C137.354462,11.4536129 136.046423,12.8817775 136.046423,15.2242343 C136.046423,17.5800385 137.347788,19.0015294 139.476688,19.0015294 L139.476688,19.0015294 Z M144.963776,18.8613824 L146.398614,18.8613824 L146.398614,14.610257 C146.398614,13.4757338 147.106023,12.7683252 148.260567,12.7683252 C149.328354,12.7683252 149.8489,13.3489341 149.8489,14.5168257 L149.8489,18.8613824 L151.283738,18.8613824 L151.283738,14.1564477 C151.283738,12.4279682 150.369446,11.4536129 148.747745,11.4536129 C147.653263,11.4536129 146.805708,11.9407905 146.452004,12.7483042 L146.345225,12.7483042 L146.345225,11.5937599 L144.963776,11.5937599 L144.963776,18.8613824 Z M158.22702,9.83191202 L158.22702,11.6271282 L157.032434,11.6271282 L157.032434,12.8350618 L158.22702,12.8350618 L158.22702,16.9393665 C158.22702,18.3408365 158.861019,18.9014244 160.456025,18.9014244 C160.736319,18.9014244 160.996592,18.8680561 161.223496,18.8280141 L161.223496,17.6334278 C161.023286,17.6534488 160.909834,17.6667962 160.689603,17.6667962 C159.975521,17.6667962 159.661858,17.3331129 159.661858,16.5723149 L159.661858,12.8350618 L161.290233,12.8350618 L161.290233,11.6271282 L159.661858,11.6271282 L159.661858,9.83191202 L158.22702,9.83191202 Z M163.33371,18.8613824 L164.768548,18.8613824 L164.768548,14.6169307 C164.768548,13.5157758 165.495977,12.7749988 166.670543,12.7749988 C167.751677,12.7749988 168.292244,13.3622815 168.292244,14.5234994 L168.292244,18.8613824 L169.727082,18.8613824 L169.727082,14.1697951 C169.727082,12.4413155 168.792769,11.4602866 167.15772,11.4602866 C166.063239,11.4602866 165.222357,11.9474642 164.868653,12.7616515 L164.755201,12.7616515 L164.755201,8.75745176 L163.33371,8.75745176 L163.33371,18.8613824 Z M175.074023,12.6748938 C176.135136,12.6748938 176.829197,13.4156708 176.862566,14.5568677 L173.192049,14.5568677 C173.272133,13.4223444 174.01291,12.6748938 175.074023,12.6748938 L175.074023,12.6748938 Z M176.855892,16.8993246 C176.588945,17.4665862 175.994989,17.7802485 175.127413,17.7802485 C173.979542,17.7802485 173.238765,16.9727349 173.192049,15.6980646 L173.192049,15.6179806 L178.324099,15.6179806 L178.324099,15.1174557 C178.324099,12.8350618 177.102818,11.4536129 175.080697,11.4536129 C173.031881,11.4536129 171.730516,12.9284931 171.730516,15.250929 C171.730516,17.5733648 173.005187,19.0015294 175.087371,19.0015294 C176.749113,19.0015294 177.910331,18.2006895 178.237341,16.8993246 L176.855892,16.8993246 Z" id="Download-on-the" fill="#FFFFFF"></path>
                    <g id="logo_apple" transform="translate(17.767969, 9.157338)" fill="#FFFFFF">
                        <path d="M26.4251749,20.5772529 C26.3811908,15.6889605 30.4277202,13.3107903 30.6127564,13.2000719 C28.3210376,9.85880345 24.7689492,9.40227971 23.5207132,9.36587915 C20.5373836,9.05192428 17.6435387,11.1510235 16.1238152,11.1510235 C14.5737578,11.1510235 12.2335049,9.39621295 9.71124911,9.44778042 C6.46553213,9.49783119 3.4291184,11.3770103 1.76379259,14.2951222 C-1.67302736,20.2450978 0.890179044,28.9888167 4.18291342,33.7982412 C5.83003895,36.1551777 7.75471878,38.7836018 10.2739412,38.6910837 C12.7385627,38.5909822 13.6591936,37.1197927 16.6334231,37.1197927 C19.5803521,37.1197927 20.4448655,38.6910837 23.0141387,38.6304161 C25.6592463,38.5909822 27.3245721,36.2658961 28.9140634,33.8877259 C30.8175096,31.1910508 31.5819215,28.5292595 31.6122553,28.3927574 C31.5515877,28.3730404 26.4767423,26.4362271 26.4251749,20.5772529" id="Fill-2"></path>
                        <path d="M21.5717663,6.20206344 C22.8973535,4.54432107 23.8043342,2.28900278 23.5525637,0.000317303497 C21.6339506,0.0852519534 19.2345467,1.32742121 17.852842,2.94876301 C16.6303897,4.37748515 15.5383728,6.71925479 15.8204771,8.92148892 C17.9756939,9.08225808 20.1885449,7.83402207 21.5717663,6.20206344" id="Fill-3"></path>
                    </g>
                </g>
            </g>
        </g>
    </g>
</svg>