<?xml version="1.0" encoding="UTF-8"?>
<svg width="199px" height="59px" viewBox="0 0 199 59" version="1.1" xmlns="http://www.w3.org/2000/svg" xmlns:xlink="http://www.w3.org/1999/xlink">
    <!-- Generator: Sketch 54 (76480) - https://sketchapp.com -->
    <title>Playstore</title>
    <desc>Created with Sketch.</desc>
    <defs>
        <linearGradient x1="50%" y1="0%" x2="50%" y2="38.9125982%" id="linearGradient-1">
            <stop stop-color="#FBDA09" offset="0%"></stop>
            <stop stop-color="#FFBC00" offset="100%"></stop>
        </linearGradient>
        <path d="M20.0501914,4.25217146 L36.6575349,33.1002068 C37.4841666,34.5361197 36.9902465,36.3702746 35.5543336,37.1969063 C35.0990497,37.4590058 34.582922,37.5969558 34.0575845,37.5969558 L0.843379679,37.5969558 C-0.81347457,37.5969558 -2.15662032,36.2538101 -2.15662032,34.5969558 C-2.15662032,34.0716311 -2.01867694,33.5555155 -1.75658954,33.1002394 L14.8502717,4.25220411 C15.6768854,2.81628076 17.511034,2.32233765 18.9469574,3.14895131 C19.4055642,3.41295612 19.7861808,3.79356794 20.0501914,4.25217146 Z" id="path-2"></path>
        <linearGradient x1="37.5156385%" y1="58.4755255%" x2="54.8205829%" y2="39.0830098%" id="linearGradient-4">
            <stop stop-color="#01E2FF" offset="0%"></stop>
            <stop stop-color="#01C4FF" offset="100%"></stop>
        </linearGradient>
        <linearGradient x1="20.2810876%" y1="32.4326425%" x2="83.820166%" y2="69.7551608%" id="linearGradient-5">
            <stop stop-color="#28D781" offset="0%"></stop>
            <stop stop-color="#02F076" offset="100%"></stop>
        </linearGradient>
        <linearGradient x1="74.4881466%" y1="35.169065%" x2="10.1079427%" y2="68.7533544%" id="linearGradient-6">
            <stop stop-color="#F2414E" offset="0%"></stop>
            <stop stop-color="#E02554" offset="100%"></stop>
        </linearGradient>
    </defs>
    <g id="Page-1" stroke="none" stroke-width="1" fill="none" fill-rule="evenodd">
        <g id="Disappear-Dents---Homepage" transform="translate(-381.000000, -2498.000000)">
            <g id="Group-16" transform="translate(0.000000, 1816.000000)">
                <g id="Playstore" transform="translate(381.131579, 682.000000)">
                    <rect id="background" fill="#000000" x="0" y="0" width="198.454545" height="58.6149685" rx="5"></rect>
                    <path d="M1.33459681,6.6739377 L1.33459681,51.9410308 C1.33459681,54.8903144 3.72481964,57.2803717 6.6739065,57.2803717 L191.780639,57.2803717 C194.729032,57.2803717 197.119949,54.8896122 197.119949,51.9410308 L197.119949,6.6739377 C197.119949,3.72465402 194.729726,1.33459681 191.780639,1.33459681 L6.6739065,1.33459681 C3.72551385,1.33459681 1.33459681,3.72535631 1.33459681,6.6739377 Z M0,6.6739377 C0,2.98802369 2.98869156,0 6.6739065,0 L191.780639,0 C195.466536,0 198.454545,2.98730903 198.454545,6.6739377 L198.454545,51.9410308 C198.454545,55.6269448 195.465854,58.6149685 191.780639,58.6149685 L6.6739065,58.6149685 C2.98800972,58.6149685 0,55.6276594 0,51.9410308 L0,6.6739377 Z" id="background" fill="#A6A6A6" fill-rule="nonzero"></path>
                    <path d="M0.667298404,6.6739377 L0.667298404,51.9410308 C0.667298404,55.2588635 3.35629126,57.9476701 6.6739065,57.9476701 L191.780639,57.9476701 C195.09756,57.9476701 197.787247,55.2581607 197.787247,51.9410308 L197.787247,6.6739377 C197.787247,3.35610493 195.098254,0.667298404 191.780639,0.667298404 L6.6739065,0.667298404 C3.35698496,0.667298404 0.667298404,3.35680774 0.667298404,6.6739377 Z M0,6.6739377 C0,2.98802369 2.98869156,0 6.6739065,0 L191.780639,0 C195.466536,0 198.454545,2.98730903 198.454545,6.6739377 L198.454545,51.9410308 C198.454545,55.6269448 195.465854,58.6149685 191.780639,58.6149685 L6.6739065,58.6149685 C2.98800972,58.6149685 0,55.6276594 0,51.9410308 L0,6.6739377 Z" id="background" fill="#8F8F8F" fill-rule="nonzero"></path>
                    <g id="get-it-on" transform="translate(60.857614, 9.876016)" fill="#FFFFFF">
                        <path d="M44.308614,9.60909702 C41.6551352,9.60909702 39.5040655,7.45802738 39.5040655,4.80454851 C39.5040655,2.15106964 41.6551352,0 44.308614,0 C46.9620929,0 49.1131626,2.15106964 49.1131626,4.80454851 C49.1131626,7.45802738 46.9620929,9.60909702 44.308614,9.60909702 Z M44.308614,8.14104053 C46.1513077,8.14104053 47.6451061,6.64724217 47.6451061,4.80454851 C47.6451061,2.96185485 46.1513077,1.46805649 44.308614,1.46805649 C42.4659204,1.46805649 40.972122,2.96185485 40.972122,4.80454851 C40.972122,6.64724217 42.4659204,8.14104053 44.308614,8.14104053 Z" id="o"></path>
                        <path d="M11.7444519,5.33838723 L11.7444519,8.27450021 L15.6147827,8.27450021 L15.6147827,9.34217766 L11.7444519,9.34217766 L10.2763954,9.34217766 L10.2763954,0.533838723 L10.2763954,0.400379043 L15.6147827,0.400379043 L15.6147827,1.46805649 L11.7444519,1.46805649 L11.7444519,4.27070979 L15.2144036,4.27070979 L15.2144036,5.33838723 L11.7444519,5.33838723 Z" id="e"></path>
                        <path d="M20.8197102,1.46805649 L20.8197102,9.34217766 L19.3516537,9.34217766 L19.3516537,1.46805649 L17.0828392,1.46805649 L17.0828392,0.400379043 L23.0885248,0.400379043 L23.0885248,1.46805649 L20.8197102,1.46805649 Z" id="t"></path>
                        <path d="M33.8987589,1.46805649 L33.8987589,9.34217766 L32.4307025,9.34217766 L32.4307025,1.46805649 L30.1618879,1.46805649 L30.1618879,0.400379043 L36.1675735,0.400379043 L36.1675735,1.46805649 L33.8987589,1.46805649 Z" id="t"></path>
                        <rect id="i" x="27.3592346" y="0.400379043" width="1.46805649" height="8.94179862"></rect>
                        <path d="M51.7823562,0.400379043 L52.0492755,0.400379043 L56.053066,6.94315852 L56.053066,0.400379043 L57.5211225,0.400379043 L57.5211225,9.34217766 L56.053066,9.34217766 L51.7823562,2.36321289 L51.7823562,9.34217766 L50.3142997,9.34217766 L50.3142997,0.400379043 L51.7823562,0.400379043 Z" id="n"></path>
                        <g id="g" transform="translate(0.000000, 0.133460)">
                            <polygon id="Rectangle-1" points="4.7756227 4.29341279 8.79510514 4.29341279 8.75530828 5.56553509 4.7756227 5.56553509"></polygon>
                            <path d="M8.00413533,1.30023477 L7.08436519,2.21901033 C6.51067695,1.63308584 5.69586856,1.31187613 4.75572427,1.31187613 C2.87650297,1.31187613 1.3530931,2.83363868 1.3530931,4.71082792 C1.3530931,6.58801716 2.87650297,8.10977971 4.75572427,8.10977971 C6.63494558,8.10977971 7.96916493,7.02454695 7.96636671,4.71082792 C7.96954505,4.56784159 7.96621173,4.42865678 7.95665222,4.29341279 L9.13076891,4.29341279 C9.13090212,4.30914263 9.13096884,4.32490447 9.13096884,4.34069809 C9.57262067,7.58016873 7.36397289,9.4454926 4.71592742,9.42165584 C2.11139513,9.41792531 0,7.31254634 0,4.71082792 C0,2.1091095 2.11139262,0 4.71592742,0 C6.07733035,0 7.22178864,0.475124631 8.00413533,1.30023477 Z" id="Oval-1"></path>
                        </g>
                    </g>
                    <g id="googleplay" transform="translate(60.190316, 25.624259)" fill="#FFFFFF">
                        <g id="big-P" transform="translate(83.278841, 0.667298)">
                            <path d="M0.667298404,4.6906297e-07 L8.23351389,0 C8.23351389,0 12.5891756,0.741066158 12.5891752,5.7427432 C12.5891749,10.7444202 8.23351389,11.4854864 8.23351389,11.4854864 L0.667298404,11.4854869 L0.667298404,4.6906297e-07 Z M2.13535489,2.77821853 L2.13535489,8.94179862 L7.27167163,8.94179862 C7.27167163,8.94179862 9.60909702,8.94179862 9.60909702,5.86000858 C9.60909702,2.77821853 7.27167163,2.77821853 7.27167163,2.77821853 L2.13535489,2.77821853 Z" id="Combined-Shape"></path>
                            <rect id="Rectangle-6" x="0" y="0" width="2.66919362" height="18.6843553"></rect>
                        </g>
                        <rect id="y" x="97.425567" y="0.667298404" width="2.66919362" height="18.6843553"></rect>
                        <path d="M109.987862,18.0157401 C109.252672,18.6223259 108.077288,19.1932238 106.220885,19.3091656 C101.967965,19.5747819 101.96575,15.6938938 101.96575,15.4321879 C101.96575,15.1704821 101.755981,12.0055715 105.139066,11.5024911 C107.534624,11.1462606 109.212456,11.739809 109.987862,12.1166777 L109.987862,11.5676985 C109.797711,10.8406331 109.207626,9.50470132 107.438574,9.50470132 C105.00816,9.50470132 104.471442,10.8187057 104.471442,10.8187057 L102.248113,9.50470132 C102.248113,9.50470132 103.492248,6.9399034 107.225351,6.93990341 C111.867103,6.93990341 112.657333,10.1415184 112.657333,11.2198179 C112.657333,11.2250665 112.65724,11.2302812 112.657056,11.2354622 L112.657056,19.3456585 L109.987862,19.3456585 L109.987862,18.0157401 Z M109.797187,14.0136575 C109.797187,14.0136575 104.654949,12.6276449 104.476199,15.5164474 C104.297449,18.4052498 109.40945,17.0181295 109.866198,14.9702923 C109.866198,14.3190899 109.797187,14.0136575 109.797187,14.0136575 Z" id="a"></path>
                        <path d="M117.665616,18.642772 L112.90689,7.34028245 L115.576084,7.34028245 L119.000213,15.4729601 L122.397125,7.40492698 L125.066318,7.40492698 L117.844898,24.5565813 L115.175705,24.5565813 L117.665616,18.642772 Z" id="y"></path>
                        <path d="M77.30323,11.7078381 L68.861376,15.1966734 C68.861376,15.1966734 69.406582,17.1263427 71.9446861,17.1392762 C73.9321161,17.1494036 75.0540317,15.3777024 75.0540317,15.3777024 L77.1958433,16.8282008 C77.1958433,16.8282008 75.4675188,19.6234286 71.9278157,19.6234286 C67.5780086,19.6234286 65.662163,15.8198762 65.662163,13.3497239 C65.662163,10.9697958 67.1828517,6.93990341 71.6578892,6.93990341 C76.1329266,6.93990341 77.30323,11.7078381 77.30323,11.7078381 Z M74.091283,10.719502 C74.091283,10.719502 73.0291806,9.10353947 71.4002911,9.40155867 C67.9546729,10.0319638 68.3882746,13.0472265 68.3882746,13.0472265 L74.091283,10.719502 Z" id="e"></path>
                        <rect id="i" x="61.6583726" y="0.667298404" width="2.82384647" height="18.6451025"></rect>
                        <path d="M57.1394139,7.34512207 L59.7497848,7.36767286 L59.7497848,19.1321609 C59.7497848,22.1379554 57.960224,25.3108598 53.7471645,25.3108598 C49.5341049,25.3108598 48.1734418,21.5780358 48.1734418,21.5780358 L50.5708238,20.5697922 C50.5708238,20.5697922 51.30201,22.870329 53.8717459,22.870326 C56.7981126,22.8703225 57.1397383,20.2079769 57.1397383,19.2966483 L57.1397383,18.0199288 C57.1397383,18.0199288 56.1271895,19.6046781 53.6122012,19.6046816 C50.8854407,19.6046853 47.6451061,17.2684599 47.6451061,13.2856589 C47.6451061,9.30285783 50.6962975,7.0247403 53.6437521,6.94187318 C56.0046361,6.87549738 57.1394139,8.50868322 57.1394139,8.50868322 L57.1394139,7.34512207 Z M53.8350852,17.2139975 C55.7386748,17.2139975 57.281839,15.4702564 57.281839,13.3192427 C57.281839,11.1682291 55.7386748,9.42448799 53.8350852,9.42448799 C51.9314957,9.42448799 50.3883315,11.1682291 50.3883315,13.3192427 C50.3883315,15.4702564 51.9314957,17.2139975 53.8350852,17.2139975 Z" id="g"></path>
                        <path d="M40.1189538,19.6185731 C36.6099273,19.6185731 33.7652993,16.7803562 33.7652993,13.2792382 C33.7652993,9.77812029 36.6099273,6.93990341 40.1189538,6.93990341 C43.6279803,6.93990341 46.4726084,9.77812029 46.4726084,13.2792382 C46.4726084,16.7803562 43.6279803,19.6185731 40.1189538,19.6185731 Z M40.0774267,17.1325594 C42.0498206,17.1325594 43.6487619,15.4073688 43.6487619,13.2792382 C43.6487619,11.1511077 42.0498206,9.42591707 40.0774267,9.42591707 C38.1050327,9.42591707 36.5060914,11.1511077 36.5060914,13.2792382 C36.5060914,15.4073688 38.1050327,17.1325594 40.0774267,17.1325594 Z" id="o"></path>
                        <path d="M26.3726067,19.6185731 C22.8635802,19.6185731 20.0189521,16.7803562 20.0189521,13.2792382 C20.0189521,9.77812029 22.8635802,6.93990341 26.3726067,6.93990341 C29.8816332,6.93990341 32.7262612,9.77812029 32.7262612,13.2792382 C32.7262612,16.7803562 29.8816332,19.6185731 26.3726067,19.6185731 Z M26.3310795,17.1325594 C28.3034735,17.1325594 29.9024148,15.4073688 29.9024148,13.2792382 C29.9024148,11.1511077 28.3034735,9.42591707 26.3310795,9.42591707 C24.3586855,9.42591707 22.7597443,11.1511077 22.7597443,13.2792382 C22.7597443,15.4073688 24.3586855,17.1325594 26.3310795,17.1325594 Z" id="o"></path>
                        <g id="big-g">
                            <polygon id="Rectangle-1" points="9.96651694 8.94964919 18.355002 8.94964919 18.2719477 11.6013971 9.96651694 11.6013971"></polygon>
                            <path d="M16.7042824,2.71034854 L14.7847621,4.62554267 C13.5874997,3.40417894 11.88703,2.73461503 9.92498979,2.73461503 C6.00313662,2.73461503 2.82384647,5.90673978 2.82384647,9.81975397 C2.82384647,13.7327682 6.00313662,16.9048929 9.92498979,16.9048929 C13.8468429,16.9048929 16.6313007,14.6427176 16.625461,9.81975397 C16.632094,9.52169797 16.6251375,9.23156625 16.6051872,8.94964919 L19.0555177,8.94964919 C19.0557957,8.98243816 19.055935,9.01529382 19.055935,9.04821575 C19.9776431,15.8009151 15.3682913,19.6891958 9.84193548,19.6395079 C4.40638984,19.6317316 0,15.2430543 0,9.81975397 C0,4.39645361 4.40638461,0 9.84193548,0 C12.6831242,0 15.0715589,0.99040064 16.7042824,2.71034854 Z" id="Oval-1"></path>
                        </g>
                    </g>
                    <g id="logo_play" transform="translate(14.547105, 9.068946)">
                        <mask id="mask-3" fill="white">
                            <use xlink:href="#path-2"></use>
                        </mask>
                        <use id="yellow" fill="url(#linearGradient-1)" transform="translate(17.450734, 20.172686) rotate(-270.000000) translate(-17.450734, -20.172686) " xlink:href="#path-2"></use>
                        <polygon id="blue" fill="url(#linearGradient-4)" mask="url(#mask-3)" points="-2.77555756e-16 1.32774848 18.6559076 19.8700162 -0.240968868 39.1451652"></polygon>
                        <polygon id="green" fill="url(#linearGradient-5)" mask="url(#mask-3)" points="-3.83634796 -2.48944457 18.6536936 19.8754398 25.340245 13.4965808"></polygon>
                        <polygon id="red" fill="url(#linearGradient-6)" mask="url(#mask-3)" points="18.6567572 19.8711729 28.8931971 30.1890248 -1.68719399 40.5068768"></polygon>
                    </g>
                </g>
            </g>
        </g>
    </g>
</svg>