<?xml version="1.0" encoding="UTF-8"?>
<svg width="60px" height="61px" viewBox="0 0 60 61" version="1.1" xmlns="http://www.w3.org/2000/svg" xmlns:xlink="http://www.w3.org/1999/xlink">
    <!-- Generator: Sketch 54 (76480) - https://sketchapp.com -->
    <title>fb</title>
    <desc>Created with Sketch.</desc>
    <g id="Page-1" stroke="none" stroke-width="1" fill="none" fill-rule="evenodd">
        <g id="Disappear-Dents---Homepage" transform="translate(-1052.000000, -8097.000000)">
            <g id="Group-18" transform="translate(1052.000000, 8097.830000)">
                <g id="fb">
                    <circle id="Oval-6" fill="#507CBD" cx="30" cy="30" r="30"></circle>
                    <path d="M24,25.2598036 L26.9992688,25.2598036 L26.9992688,22.4464695 C26.9992688,21.2068905 27.0316841,19.2923746 27.9666098,18.1087659 C28.9493054,16.8543712 30.3005118,16 32.6224714,16 C36.4065318,16 38,16.5218414 38,16.5218414 L37.2510358,20.8101593 C37.2510358,20.8101593 36.0004874,20.4611676 34.8335364,20.4611676 C33.6682915,20.4611676 32.6224714,20.8644835 32.6224714,21.9904756 L32.6224714,25.2598036 L37.4062881,25.2598036 L37.0736047,29.4477042 L32.6224714,29.4477042 L32.6224714,44 L26.9992688,44 L26.9992688,29.4477042 L24,29.4477042 L24,25.2598036 Z" id="Fill-4" fill="#FFFFFF"></path>
                </g>
            </g>
        </g>
    </g>
</svg>