<?xml version="1.0" encoding="UTF-8"?>
<svg width="60px" height="61px" viewBox="0 0 60 61" version="1.1" xmlns="http://www.w3.org/2000/svg" xmlns:xlink="http://www.w3.org/1999/xlink">
    <!-- Generator: Sketch 54 (76480) - https://sketchapp.com -->
    <title>linkedin</title>
    <desc>Created with Sketch.</desc>
    <g id="Page-1" stroke="none" stroke-width="1" fill="none" fill-rule="evenodd">
        <g id="Disappear-Dents---Homepage" transform="translate(-1122.000000, -8097.000000)">
            <g id="Group-18" transform="translate(1052.000000, 8097.830000)">
                <g id="linkedin" transform="translate(70.000000, -0.000000)">
                    <circle id="Oval-6-Copy-3" fill="#1186C8" cx="30" cy="30" r="30"></circle>
                    <path d="M46.1538462,41.5384615 L39.4652341,41.5384615 L39.4652341,32.5316407 C39.4652341,30.1741176 38.4189707,28.5647021 36.118259,28.5647021 C34.3584725,28.5647021 33.3798248,29.6507705 32.9243088,30.6974648 C32.7534903,31.0731591 32.7801807,31.5948657 32.7801807,32.1198534 L32.7801807,41.5384615 L26.1538462,41.5384615 C26.1538462,41.5384615 26.2392554,25.5837561 26.1538462,24.1334775 L32.7801807,24.1334775 L32.7801807,26.8650543 C33.1716397,25.6707072 35.2890775,23.964497 38.6698604,23.964497 C42.8602518,23.964497 46.1538462,26.4696729 46.1538462,31.8590001 L46.1538462,41.5384615 Z M20.1339654,22.0118343 L20.0862517,22.0118343 C17.7005658,22.0118343 16.1538462,20.7208483 16.1538462,19.0860239 C16.1538462,17.4177708 17.7482796,16.1538462 20.1796911,16.1538462 C22.6111026,16.1538462 24.1061324,17.4145871 24.1538462,19.0812484 C24.1538462,20.7176647 22.6111026,22.0118343 20.1339654,22.0118343 L20.1339654,22.0118343 Z M16.1538462,41.5384615 L22.1538462,41.5384615 L22.1538462,23.964497 L16.1538462,23.964497 L16.1538462,41.5384615 Z" id="Fill-4" fill="#FFFFFF"></path>
                </g>
            </g>
        </g>
    </g>
</svg>